<?xml version="1.0" encoding="UTF-8"?>
<svg width="1653px" height="800px" viewBox="0 0 1653 800" version="1.1" xmlns="http://www.w3.org/2000/svg" xmlns:xlink="http://www.w3.org/1999/xlink">
    <!-- Generator: Sketch Beta 63.1 (92452) - https://sketch.com -->
    <title>Wide Tile Icon</title>
    <desc>Created with Sketch Beta.</desc>
    <defs>
        <linearGradient x1="50%" y1="0%" x2="50%" y2="100%" id="linearGradient-1">
            <stop stop-color="#424242" offset="0%"></stop>
            <stop stop-color="#212121" offset="100%"></stop>
        </linearGradient>
        <linearGradient x1="50%" y1="0%" x2="50%" y2="100%" id="linearGradient-2">
            <stop stop-color="#455A64" offset="0%"></stop>
            <stop stop-color="#D81B60" offset="100%"></stop>
        </linearGradient>
        <path d="M721,625.2 C738.066667,625.2 755,620 771.8,609.6 C788.6,599.2 804.466667,585.333333 819.4,568 C834.333333,550.666667 847.4,531.333333 858.6,510 L858.6,510 L865.063,510 L865.042746,510.367251 C864.16637,527.159973 865.662951,542.840372 869.532491,557.408446 L869.8,558.4 C875.133333,577.866667 884.733333,593.333333 898.6,604.8 C912.466667,616.266667 929.8,622 950.6,622 C962.866667,622 973.4,620.133333 982.2,616.4 C991,612.666667 999.133333,607.333333 1006.6,600.4 C1013.53333,593.466667 1019.53333,584.133333 1024.6,572.4 C1029.66667,560.666667 1033.26667,547.866667 1035.4,534 C1036.46667,526.533333 1037.53333,519.333333 1038.6,512.4 C1039.66667,505.466667 1040.46667,498.533333 1041,491.6 L1041,491.6 L1033.8,491.6 C1027.93333,496.933333 1022.2,500.666667 1016.6,502.8 C1011,504.933333 1005.26667,506 999.4,506 C996.2,506 993.266667,505.466667 990.6,504.4 C987.933333,503.333333 985.8,501.733333 984.2,499.6 C988.466667,478.266667 993.133333,456.266667 998.2,433.6 C1003.26667,410.933333 1008.33333,387.466667 1013.4,363.2 C1018.46667,338.933333 1023.13333,314.533333 1027.4,290 C1032.73333,261.733333 1033.66667,239.466667 1030.2,223.2 C1026.73333,206.933333 1020.46667,195.466667 1011.4,188.8 C1002.33333,182.133333 990.866667,178.8 977,178.8 C966.866667,178.8 957.4,179.066667 948.6,179.6 C939.8,180.133333 930.6,181.2 921,182.8 C919.933333,191.866667 918.733333,201.066667 917.4,210.4 L917.4,210.4 L913.4,238.4 C913.233333,239.566667 913.06875,240.735417 912.90625,241.90625 L912.565,244.4 L905,244.4 C899.810811,231.945946 892.728269,220.50168 883.752374,210.067202 L883,209.2 C873.666667,198.533333 862.733333,190 850.2,183.6 C837.666667,177.2 823.133333,174 806.6,174 C785.8,174 765.666667,178.533333 746.2,187.6 C726.733333,196.666667 708.733333,210.533333 692.2,229.2 C675.666667,247.866667 661.533333,271.733333 649.8,300.8 C638.066667,329.866667 629,363.866667 622.6,402.8 L622.6,402.8 L615.4,445.2 C612.2,467.066667 612.2,488.533333 615.4,509.6 C618.6,530.666667 625,550 634.6,567.6 C644.2,585.2 656.333333,599.2 671,609.6 C685.666667,620 702.333333,625.2 721,625.2 Z M752.2,501.2 C749.533333,501.2 746.866667,500.933333 744.2,500.4 C741.533333,499.866667 738.866667,499.066667 736.2,498 C735.133333,489.466667 735,479.733333 735.8,468.8 C736.6,457.866667 738.066667,445.466667 740.2,431.6 L740.2,431.6 L746.6,400.4 C750.866667,376.4 756.733333,356 764.2,339.2 C771.666667,322.4 781.4,309.6 793.4,300.8 C805.4,292 819.933333,287.6 837,287.6 C853,287.6 867.8,290.533333 881.4,296.4 C889.016,299.685333 895.921173,303.806933 902.11552,308.7648 L902.449,309.035 L902.397222,309.311806 C900.378704,320.00162 898.267593,330.529398 896.063889,340.895139 L895.4,344 C890.066667,368.8 884.866667,393.333333 879.8,417.6 L881.088,411.442 L880.969136,411.626698 C873.096252,423.878343 865.094107,434.772734 856.962698,444.30987 L856.2,445.2 C839.666667,464.4 822.866667,478.533333 805.8,487.6 C788.733333,496.666667 770.866667,501.2 752.2,501.2 Z" id="path-3"></path>
        <filter x="-1.9%" y="-1.8%" width="104.7%" height="104.4%" filterUnits="objectBoundingBox" id="filter-4">
            <feOffset dx="2" dy="2" in="SourceAlpha" result="shadowOffsetOuter1"></feOffset>
            <feGaussianBlur stdDeviation="3" in="shadowOffsetOuter1" result="shadowBlurOuter1"></feGaussianBlur>
            <feColorMatrix values="0 0 0 0 0   0 0 0 0 0   0 0 0 0 0  0 0 0 0.5 0" type="matrix" in="shadowBlurOuter1"></feColorMatrix>
        </filter>
    </defs>
    <g id="Wide-Tile-Icon" stroke="none" stroke-width="1" fill="none" fill-rule="evenodd">
        <rect id="Icon-Background" fill="url(#linearGradient-1)" x="0" y="0" width="1653" height="800"></rect>
        <g id="First-Initial" fill-rule="nonzero">
            <use fill="black" fill-opacity="1" filter="url(#filter-4)" xlink:href="#path-3"></use>
            <use fill="#424242" xlink:href="#path-3"></use>
            <use fill="url(#linearGradient-2)" xlink:href="#path-3"></use>
        </g>
    </g>
</svg>