<svg width="800" height="800" viewBox="0 0 800 800" version="1.1" xmlns="http://www.w3.org/2000/svg" xmlns:xlink="http://www.w3.org/1999/xlink"><title>Maskable Icon</title><desc>Created with Sketch Beta.</desc><defs><linearGradient x1="50%" y1="0%" x2="50%" y2="100%" id="linearGradient-1"><stop stop-color="#424242" offset="0%"/><stop stop-color="#212121" offset="100%"/></linearGradient><linearGradient x1="50%" y1="0%" x2="50%" y2="100%" id="linearGradient-2"><stop stop-color="#455A64" offset="0%"/><stop stop-color="#D81B60" offset="100%"/></linearGradient><path d="M294,625.2 C311.066667,625.2 328,620 344.8,609.6 C361.6,599.2 377.466667,585.333333 392.4,568 C407.333333,550.666667 420.4,531.333333 431.6,510 L431.6,510 L438.063,510 L438.042746,510.367251 C437.16637,527.159973 438.662951,542.840372 442.532491,557.408446 L442.8,558.4 C448.133333,577.866667 457.733333,593.333333 471.6,604.8 C485.466667,616.266667 502.8,622 523.6,622 C535.866667,622 546.4,620.133333 555.2,616.4 C564,612.666667 572.133333,607.333333 579.6,600.4 C586.533333,593.466667 592.533333,584.133333 597.6,572.4 C602.666667,560.666667 606.266667,547.866667 608.4,534 C609.466667,526.533333 610.533333,519.333333 611.6,512.4 C612.666667,505.466667 613.466667,498.533333 614,491.6 L614,491.6 L606.8,491.6 C600.933333,496.933333 595.2,500.666667 589.6,502.8 C584,504.933333 578.266667,506 572.4,506 C569.2,506 566.266667,505.466667 563.6,504.4 C560.933333,503.333333 558.8,501.733333 557.2,499.6 C561.466667,478.266667 566.133333,456.266667 571.2,433.6 C576.266667,410.933333 581.333333,387.466667 586.4,363.2 C591.466667,338.933333 596.133333,314.533333 600.4,290 C605.733333,261.733333 606.666667,239.466667 603.2,223.2 C599.733333,206.933333 593.466667,195.466667 584.4,188.8 C575.333333,182.133333 563.866667,178.8 550,178.8 C539.866667,178.8 530.4,179.066667 521.6,179.6 C512.8,180.133333 503.6,181.2 494,182.8 C492.933333,191.866667 491.733333,201.066667 490.4,210.4 L490.4,210.4 L486.4,238.4 C486.233333,239.566667 486.06875,240.735417 485.90625,241.90625 L485.565,244.4 L478,244.4 C472.810811,231.945946 465.728269,220.50168 456.752374,210.067202 L456,209.2 C446.666667,198.533333 435.733333,190 423.2,183.6 C410.666667,177.2 396.133333,174 379.6,174 C358.8,174 338.666667,178.533333 319.2,187.6 C299.733333,196.666667 281.733333,210.533333 265.2,229.2 C248.666667,247.866667 234.533333,271.733333 222.8,300.8 C211.066667,329.866667 202,363.866667 195.6,402.8 L195.6,402.8 L188.4,445.2 C185.2,467.066667 185.2,488.533333 188.4,509.6 C191.6,530.666667 198,550 207.6,567.6 C217.2,585.2 229.333333,599.2 244,609.6 C258.666667,620 275.333333,625.2 294,625.2 Z M325.2,501.2 C322.533333,501.2 319.866667,500.933333 317.2,500.4 C314.533333,499.866667 311.866667,499.066667 309.2,498 C308.133333,489.466667 308,479.733333 308.8,468.8 C309.6,457.866667 311.066667,445.466667 313.2,431.6 L313.2,431.6 L319.6,400.4 C323.866667,376.4 329.733333,356 337.2,339.2 C344.666667,322.4 354.4,309.6 366.4,300.8 C378.4,292 392.933333,287.6 410,287.6 C426,287.6 440.8,290.533333 454.4,296.4 C462.016,299.685333 468.921173,303.806933 475.11552,308.7648 L475.449,309.035 L475.397222,309.311806 C473.378704,320.00162 471.267593,330.529398 469.063889,340.895139 L468.4,344 C463.066667,368.8 457.866667,393.333333 452.8,417.6 L454.088,411.442 L453.969136,411.626698 C446.096252,423.878343 438.094107,434.772734 429.962698,444.30987 L429.2,445.2 C412.666667,464.4 395.866667,478.533333 378.8,487.6 C361.733333,496.666667 343.866667,501.2 325.2,501.2 Z" id="path-3"/><filter x="-1.9%" y="-1.8%" width="104.7%" height="104.4%" filterUnits="objectBoundingBox" id="filter-4"><feOffset dx="2" dy="2" in="SourceAlpha" result="shadowOffsetOuter1"/><feGaussianBlur stdDeviation="3" in="shadowOffsetOuter1" result="shadowBlurOuter1"/><feColorMatrix values="0 0 0 0 0 0 0 0 0 0 0 0 0 0 0 0 0 0 0.5 0" type="matrix" in="shadowBlurOuter1"/></filter></defs><g id="Maskable-Icon" stroke="none" stroke-width="1" fill="none" fill-rule="evenodd"><rect id="Icon-Background" fill="url(#linearGradient-1)" x="0" y="0" width="800" height="800"/><g id="First-Initial" fill-rule="nonzero"><use fill="#000" fill-opacity="1" filter="url(#filter-4)" xlink:href="#path-3"/><use fill="#424242" xlink:href="#path-3"/><use fill="url(#linearGradient-2)" xlink:href="#path-3"/></g></g></svg>