<svg width="595" height="110" viewBox="0 0 595 110" version="1.1" xmlns="http://www.w3.org/2000/svg" xmlns:xlink="http://www.w3.org/1999/xlink"><title>Letterhead</title><desc>Created with Sketch Beta.</desc><defs><linearGradient x1="50%" y1="0%" x2="50%" y2="100%" id="linearGradient-1"><stop stop-color="#455A64" offset="0%"/><stop stop-color="#D81B60" offset="100%"/></linearGradient><path d="M23.52,50.016 C24.8853333,50.016 26.24,49.6 27.584,48.768 C28.928,47.936 30.1973333,46.8266667 31.392,45.44 C32.5866667,44.0533333 33.632,42.5066667 34.528,40.8 L34.528,40.8 L35.04504,40.8 L35.0434197,40.8293801 C34.9733096,42.1727979 35.0930361,43.4272297 35.4025993,44.5926757 L35.424,44.672 C35.8506667,46.2293333 36.6186667,47.4666667 37.728,48.384 C38.8373333,49.3013333 40.224,49.76 41.888,49.76 C42.8693333,49.76 43.712,49.6106667 44.416,49.312 C45.12,49.0133333 45.7706667,48.5866667 46.368,48.032 C46.9226667,47.4773333 47.4026667,46.7306667 47.808,45.792 C48.2133333,44.8533333 48.5013333,43.8293333 48.672,42.72 C48.7573333,42.1226667 48.8426667,41.5466667 48.928,40.992 C49.0133333,40.4373333 49.0773333,39.8826667 49.12,39.328 L49.12,39.328 L48.544,39.328 C48.0746667,39.7546667 47.616,40.0533333 47.168,40.224 C46.72,40.3946667 46.2613333,40.48 45.792,40.48 C45.536,40.48 45.3013333,40.4373333 45.088,40.352 C44.8746667,40.2666667 44.704,40.1386667 44.576,39.968 C44.9173333,38.2613333 45.2906667,36.5013333 45.696,34.688 C46.1013333,32.8746667 46.5066667,30.9973333 46.912,29.056 C47.3173333,27.1146667 47.6906667,25.1626667 48.032,23.2 C48.4586667,20.9386667 48.5333333,19.1573333 48.256,17.856 C47.9786667,16.5546667 47.4773333,15.6373333 46.752,15.104 C46.0266667,14.5706667 45.1093333,14.304 44,14.304 C43.1893333,14.304 42.432,14.3253333 41.728,14.368 C41.024,14.4106667 40.288,14.496 39.52,14.624 C39.4346667,15.3493333 39.3386667,16.0853333 39.232,16.832 L39.232,16.832 L38.912,19.072 C38.8986667,19.1653333 38.8855,19.2588333 38.8725,19.3525 L38.8452,19.552 L38.24,19.552 C37.8248649,18.5556757 37.2582615,17.6401344 36.5401899,16.8053762 L36.48,16.736 C35.7333333,15.8826667 34.8586667,15.2 33.856,14.688 C32.8533333,14.176 31.6906667,13.92 30.368,13.92 C28.704,13.92 27.0933333,14.2826667 25.536,15.008 C23.9786667,15.7333333 22.5386667,16.8426667 21.216,18.336 C19.8933333,19.8293333 18.7626667,21.7386667 17.824,24.064 C16.8853333,26.3893333 16.16,29.1093333 15.648,32.224 L15.648,32.224 L15.072,35.616 C14.816,37.3653333 14.816,39.0826667 15.072,40.768 C15.328,42.4533333 15.84,44 16.608,45.408 C17.376,46.816 18.3466667,47.936 19.52,48.768 C20.6933333,49.6 22.0266667,50.016 23.52,50.016 Z M26.016,40.096 C25.8026667,40.096 25.5893333,40.0746667 25.376,40.032 C25.1626667,39.9893333 24.9493333,39.9253333 24.736,39.84 C24.6506667,39.1573333 24.64,38.3786667 24.704,37.504 C24.768,36.6293333 24.8853333,35.6373333 25.056,34.528 L25.056,34.528 L25.568,32.032 C25.9093333,30.112 26.3786667,28.48 26.976,27.136 C27.5733333,25.792 28.352,24.768 29.312,24.064 C30.272,23.36 31.4346667,23.008 32.8,23.008 C34.08,23.008 35.264,23.2426667 36.352,23.712 C36.96128,23.9748267 37.5136939,24.3045547 38.0092416,24.701184 L38.03592,24.7228 L38.0317778,24.7449444 C37.8702963,25.6001296 37.7014074,26.4423519 37.5251111,27.2716111 L37.472,27.52 C37.0453333,29.504 36.6293333,31.4666667 36.224,33.408 L36.32704,32.91536 L36.3175309,32.9301359 C35.6877002,33.9102675 35.0475285,34.7818187 34.3970159,35.5447896 L34.336,35.616 C33.0133333,37.152 31.6693333,38.2826667 30.304,39.008 C28.9386667,39.7333333 27.5093333,40.096 26.016,40.096 Z" id="path-2"/><filter x="-49.6%" y="-47.1%" width="211%" height="205.3%" filterUnits="objectBoundingBox" id="filter-3"><feOffset dx="2" dy="2" in="SourceAlpha" result="shadowOffsetOuter1"/><feGaussianBlur stdDeviation="6" in="shadowOffsetOuter1" result="shadowBlurOuter1"/><feColorMatrix values="0 0 0 0 0 0 0 0 0 0 0 0 0 0 0 0 0 0 0.5 0" type="matrix" in="shadowBlurOuter1"/></filter></defs><g id="Letterhead" stroke="none" stroke-width="1" fill="none" fill-rule="evenodd"><g id="Centered-Group" transform="translate(37.000000, 23.000000)"><text id="Email" fill="#D81B60" font-family="RecursiveSansCsl-Light, Recursive" font-size="14" font-style="italic" font-weight="300"><tspan x="386" y="42">4cm4k1@gmail.com</tspan></text><g id="Material-Icon-(Send)" transform="translate(359.000000, 28.000000)"><polygon id="Path" points="0 0 18 0 18 18 0 18"/><path d="M3.0075,4.5225 L8.64,6.9375 L3,6.1875 L3.0075,4.5225 M8.6325,11.0625 L3,13.4775 L3,11.8125 L8.6325,11.0625 M1.5075,2.25 L1.5,7.5 L12.75,9 L1.5,10.5 L1.5075,15.75 L17.25,9 L1.5075,2.25 Z" id="Shape" fill="#000" fill-rule="nonzero"/></g><text id="Website" fill="#D81B60" font-family="RecursiveSansCsl-Light, Recursive" font-size="14" font-style="italic" font-weight="300"><tspan x="254" y="42">anthony.app</tspan></text><g id="Material-Icon-(Link)" transform="translate(227.000000, 28.000000)"><polygon id="Path" points="0 0 18 0 18 18 0 18"/><path d="M12.75,5.25 L9.75,5.25 L9.75,6.75 L12.75,6.75 C13.9875,6.75 15,7.7625 15,9 C15,10.2375 13.9875,11.25 12.75,11.25 L9.75,11.25 L9.75,12.75 L12.75,12.75 C14.82,12.75 16.5,11.07 16.5,9 C16.5,6.93 14.82,5.25 12.75,5.25 Z M8.25,11.25 L5.25,11.25 C4.0125,11.25 3,10.2375 3,9 C3,7.7625 4.0125,6.75 5.25,6.75 L8.25,6.75 L8.25,5.25 L5.25,5.25 C3.18,5.25 1.5,6.93 1.5,9 C1.5,11.07 3.18,12.75 5.25,12.75 L8.25,12.75 L8.25,11.25 Z M6,8.25 L12,8.25 L12,9.75 L6,9.75 L6,8.25 Z" id="Shape" fill="#000" fill-rule="nonzero"/></g><text id="Occupation" fill="#D81B60" font-family="RecursiveSansLnr-Bold, Recursive" font-size="12" font-style="italic" font-weight="bold" letter-spacing="-.7"><tspan x="73" y="48">WEB SOFTWARE ENGINEER</tspan></text><text id="Name" fill="#D81B60" font-family="RecursiveSansCsl-Light, Recursive" font-size="20" font-style="italic" font-weight="300"><tspan x="73" y="32">Anthony Maki</tspan></text><g id="Letter-Icon" fill-rule="nonzero"><g id="a"><use fill="#000" fill-opacity="1" filter="url(#filter-3)" xlink:href="#path-2"/><use fill="url(#linearGradient-1)" xlink:href="#path-2"/></g></g></g></g></svg>