<?xml version="1.0" standalone="no"?>
<!DOCTYPE svg PUBLIC "-//W3C//DTD SVG 20010904//EN"
 "http://www.w3.org/TR/2001/REC-SVG-20010904/DTD/svg10.dtd">
<svg version="1.0" xmlns="http://www.w3.org/2000/svg"
 width="712.000000pt" height="712.000000pt" viewBox="0 0 712.000000 712.000000"
 preserveAspectRatio="xMidYMid meet">
<metadata>
Created by potrace 1.11, written by Peter Selinger 2001-2013
</metadata>
<g transform="translate(0.000000,712.000000) scale(0.100000,-0.100000)"
fill="#000000" stroke="none">
<path d="M4781 4832 c-13 -2 -20 -7 -15 -10 8 -5 131 -163 216 -277 4 -5 27
-35 50 -65 24 -30 56 -73 72 -95 17 -22 33 -42 36 -45 3 -3 17 -21 30 -40 14
-19 30 -42 37 -50 6 -8 32 -41 57 -72 25 -31 46 -61 46 -67 0 -6 4 -11 8 -11
4 0 25 -24 47 -52 21 -29 43 -57 47 -63 5 -5 67 -86 139 -180 71 -93 135 -177
142 -185 45 -56 167 -220 167 -225 0 -7 -178 -244 -196 -260 -5 -5 -63 -80
-127 -165 -104 -138 -262 -344 -325 -426 -117 -151 -169 -219 -182 -238 -18
-27 -112 -149 -120 -156 -3 -3 -25 -32 -50 -65 -25 -33 -49 -65 -55 -71 -38
-44 -44 -54 -32 -55 6 -1 180 -2 386 -3 290 -2 376 1 385 11 19 21 29 35 111
143 44 58 85 110 90 116 6 6 19 23 30 38 11 15 52 69 91 119 38 51 166 218
284 372 118 154 218 285 222 290 77 98 104 133 158 205 35 47 69 90 75 97 28
33 31 40 27 53 -5 14 -47 71 -190 254 -35 45 -70 92 -80 106 -9 14 -19 27 -22
30 -3 3 -42 52 -86 110 -43 58 -81 107 -84 110 -3 3 -34 43 -70 90 -36 47 -70
92 -77 100 -6 8 -55 71 -108 140 -53 69 -101 132 -108 140 -7 9 -46 61 -87
115 -41 55 -77 102 -80 105 -4 4 -84 110 -97 129 -4 5 -728 7 -762 3z"/>
<path d="M1417 4354 c-1 -1 -27 -4 -57 -7 -125 -12 -273 -62 -370 -125 -140
-91 -248 -244 -268 -379 l-9 -63 114 0 c63 0 112 4 109 8 -7 12 17 100 39 141
31 61 119 139 197 176 98 46 174 62 299 63 240 1 416 -90 494 -254 35 -73 38
-93 42 -261 l4 -153 -228 -1 c-125 -1 -241 -3 -258 -4 -16 -1 -59 -4 -95 -5
-36 -2 -81 -7 -100 -11 -19 -4 -51 -10 -70 -13 -204 -27 -410 -143 -506 -286
-57 -84 -73 -138 -81 -267 -18 -298 181 -522 517 -582 52 -9 218 -7 270 3 202
39 358 116 487 241 l62 60 6 -45 c3 -25 7 -63 10 -85 5 -43 9 -63 23 -110 l8
-30 118 -3 c117 -3 117 -3 113 20 -2 13 -7 30 -10 38 -6 15 -26 111 -33 159
-13 86 -16 201 -18 696 -2 409 -6 563 -16 600 -13 52 -65 170 -84 192 -6 7
-27 32 -46 56 -94 117 -263 198 -465 223 -48 6 -193 12 -198 8z m593 -1242 l0
-217 -38 -58 c-133 -202 -361 -320 -622 -320 -310 -1 -506 200 -457 466 28
149 174 267 387 312 120 25 134 26 310 32 96 3 176 6 177 7 1 0 56 0 122 -2
l121 -3 0 -217z"/>
<path d="M3115 4348 c-79 -10 -120 -25 -180 -63 -56 -35 -145 -122 -145 -141
0 -6 -7 -17 -16 -24 -8 -8 -14 -9 -13 -4 1 5 1 53 0 106 l-1 98 -99 -1 -99 0
0 -980 1 -979 102 0 103 0 1 756 c2 800 1 787 48 877 40 78 141 152 221 163
160 22 254 -7 313 -95 29 -44 43 -83 53 -151 3 -19 6 -376 6 -792 l0 -758 103
0 103 0 0 758 c1 807 0 787 48 881 35 67 116 130 194 150 183 49 331 -17 380
-169 22 -68 24 -161 24 -887 l1 -731 31 -4 c17 -1 63 -1 101 2 l71 5 -1 775
c0 426 -4 798 -9 825 -25 155 -110 289 -219 344 -83 41 -205 56 -314 37 -24
-4 -45 -8 -48 -7 -13 1 -84 -35 -125 -62 -55 -38 -107 -90 -142 -141 l-27 -39
-17 41 c-9 23 -20 42 -25 42 -5 0 -9 6 -9 13 -1 35 -98 109 -177 136 -71 24
-152 30 -238 19z"/>
</g>
</svg>
